<svg width="960" height="1032" viewBox="0 0 960 1032" fill="none" xmlns="http://www.w3.org/2000/svg">
<path d="M753 0C754.34 0 755.676 0.0127504 757.01 0.0380859C757.899 0.0549772 758.787 0.0774006 759.673 0.105469C870.908 3.62816 960 94.9098 960 207V825C960 938.876 868.046 1031.28 754.339 1032L753 1032H207L205.661 1032C92.4003 1031.28 0.721291 939.6 0.00390625 826.339L0 825V207C0 120.811 52.6752 46.9252 127.589 15.7793C128.365 15.4566 129.144 15.1387 129.925 14.8252C144.765 8.86789 160.454 4.57921 176.762 2.19238C177.62 2.06676 178.48 1.94709 179.342 1.83203C188.389 0.623946 197.622 1.26841e-07 207 0H753ZM912 789.546C874.029 835.046 816.897 864 753 864H207C143.103 864 85.9712 835.046 48 789.546V825C48 912.813 119.187 984 207 984H753C840.813 984 912 912.813 912 825V789.546ZM357 242V623H405V487H503C503 487 622 486 622 365C622 242 506 242 506 242H357ZM492 284C601 284 601 444 492 444H405V284H492Z" fill="black"/>
</svg>
