<svg width="1024" height="1024" viewBox="0 0 1024 1024" fill="none" xmlns="http://www.w3.org/2000/svg">
<path d="M783.163 0C784.492 7.51858e-07 785.818 0.0129481 787.142 0.0380859C788.024 0.0548463 788.905 0.0766416 789.784 0.104492C900.157 3.59991 988.559 94.1742 988.559 205.396V818.604C988.559 931.598 897.317 1023.28 784.491 1024L783.163 1024H241.396L240.067 1024C127.685 1023.28 36.716 932.316 36.0039 819.934L36 818.604V205.396C36 119.875 88.2668 46.5617 162.6 15.6572C163.37 15.337 164.143 15.021 164.918 14.71C179.643 8.79891 195.211 4.54409 211.392 2.17578C212.243 2.05115 213.096 1.93153 213.951 1.81738C222.929 0.618662 232.09 1.25858e-07 241.396 0H783.163ZM940.931 783.426C903.254 828.573 846.565 857.303 783.163 857.303H241.396C177.994 857.303 121.305 828.573 83.6279 783.426V818.604C83.6279 905.737 154.263 976.372 241.396 976.372H783.163C870.296 976.372 940.931 905.737 940.931 818.604V783.426ZM390.233 240.124V618.171H437.861V483.225H535.102C535.285 483.223 653.179 482.139 653.18 362.171C653.18 240.22 538.259 240.124 538.078 240.124H390.233ZM524.186 281.799C632.34 281.799 632.34 440.558 524.186 440.559H437.859V281.799H524.186Z" fill="black"/>
</svg>
